/* XPM */
static char * exit_open_xpm[] = {
"64 64 9 1",
" 	c #221F1F",
".	c #3A3838",
"+	c #DED7E5",
"@	c #AFACC1",
"#	c #38FB01",
"$	c #38FB02",
"%	c #9F7C44",
"&	c #8F6146",
"*	c #723C3A",
"                                                                ",
"                                                                ",
"  ............................................................  ",
"  ............................................................  ",
"  ............................................................  ",
"  ............................................................  ",
"  ..................++++++++++++++++++++++....................  ",
"  .................++++++++++++++++++++++++...................  ",
"  ..............++++++++++++++++++++++++++++++................  ",
"  ..............++++++++++++++++++++++++++++++................  ",
"  ..............+@@@@@@@@@@@@@@@@@@@@@@@@@@@@+................  ",
"  ..............+@@@@@@@@@@@@@@@@@@@@@@@@@@@@+................  ",
"  ..............+@@@@@@@@@@@@@@@@@@@@@@@@@@@@+................  ",
"  ..............+@@@######################@@@+................  ",
"  ..............+@@@#$$$$$$$$$$$$$$#######@@@+................  ",
"  ..............+@@@#$$$$$$$$$$$$$$#######@@@+................  ",
"  ..............+@@@#$$$$$$$$$$$$$$#######@@@+................  ",
"  ..............+@@@#$$$$$$$$$$$$$$$$$$$$#@@@+................  ",
"  ..............+@@@#$$$$$$$$$$##$$$$$$$$#@@@+................  ",
"  ..............+@@@#$$##########$$$$$$$$#@@@+................  ",
"  ..............+@@@#$$##########$$$$$$$$#@@@+................  ",
"  ..............+@@@#$$##########$$$$$$$$#@@@+................  ",
"  .%%%%%%%%%%%%%+@@@#$$##########$$$$$$$$#@@@+%%%%%%%%%%%%%%%.  ",
"  .&&&&&&&&&&&&&+@@@#$$##########$$$$$$$$#@@@+&&&&&&&&&&&&&&&.  ",
"  .&&&&&&&&&&&&&+@@@#$$##########$$$$$$$$#@@@+&&&&&&&&&&&&&&&.  ",
"  .&&&&&&&&&&&&&+@@@#$$$$$$$$$$$$$$$$$$$$#@@@+&&&&&&&&&&&&&&&.  ",
"  .&&&&&&&&&&&&&+@@@#$$$$$$$$$$$$$$$$$$$$#@@@+&&&&&&&&&&&&&&&.  ",
"  .&&&&&&&&&&&&&+@@@######################@@@+&&&&&&&&&&&&&&&.  ",
"  .&&&&&&&&&&&&&+@@@@@@@@@@@@@@@@@@@@@@@@@@@@+&&&&&&&&&&&&&&&.  ",
"  .&&&&&&&&&&&&&+@@@@@@@@@@@@@@@@@@@@@@@@@@@@+&&&&&&&&&&&&&&&.  ",
"  .&&&&&&&&&&&&&+@@@@@@@@@@@@@@@@@@@@@@@@@@@@+&&&&&&&&&&&&&&&.  ",
"  .&&&&&&&&&&&&&&&&&&&&&&+@@@@@@@@@@@+&&&&&&&&&&&&&&&&&&&&&&&.  ",
"  .&&&&&&&&&&&&&*******++@@@@@@@@@@@@@++******&&&&&&&&&&&&&&&.  ",
"  .&&&&&&&&&&&&&******************************&&&&&&&&&&&&&&&.  ",
"  .&&&&&&&&&&&&&******************************&&&&&&&&&&&&&&&.  ",
"  .&&&&&&&&&&+++++++++++++++++++++++++++++++++++&&&&&&&&&&&&&.  ",
"  .&&&&&&&&&&+@@+@@@+@@@+@@@+@@@+@@@+@@+@+@+@+@+&&&&&&&&&&&&&.  ",
"  .&&&&&&&&&&+++++++++++++++++++++++++++++@+@+@+&&&@@+@@&&&&&.  ",
"  .&&&&&&&&&&+@++@+@+@+@+@+@+@+@+@+@+++@@+++++++&&&@@+@@&&&&&.  ",
"  .&&&&&&&&&&+@++++++++++++++++++++++@@@@+@+@+@+&&&+++++&&&&&.  ",
"  .&&&&&&&&&&++++@+@+@+@+@+@+@+@+@+@+@@@@+@+@+@+&&&+++++&&&&&.  ",
"  .&&&&&&&&&&+++++++++++++++++++++++++++++++++++&&&+++++&&&&&.  ",
"  .&&&&&&&&&&++++++++++++++++++++++++++++++@++@+&&&+++++&&&&&.  ",
"  .&&&&&&&&&&++++++++++@@@@@@@@@++++++++++@@@+@+&&&+++++&&&&&.  ",
"  .&&&&&&&&&&++++++++++@@@@@@@@@++++++++++++++++&&&@@@@@&&&&&.  ",
"  .&&&&&&&&&&+++++++++++++++++++++++++++++++++++&&&*****&&&&&.  ",
"  .&&&&&&&&&&@@@@@@@@@@@@@@@@@@@@@@@@@@@@@@@@@@@&&&&&&&&&&&&&.  ",
"  .&&&&&&&&&&***********************************&&&&&&&&&&&&&.  ",
"  .&&&&&&&&&&&&&&&&&&&&&&&&&&&&&&&&&&&&&&&&&&&&&&&&&&&&&&&&&&.  ",
"  .%%%%%%%%%%%%%%%%%%%%%%%%%%%%%%%%%%%%%%%%%%%%%%%%%%%%%%%%%%.  ",
"  .**********************************************************.  ",
"  .**********************************************************.  ",
"  .*****................................................*****.  ",
"  .*****................................................*****.  ",
"  .*****................................................*****.  ",
"  .*****................................................*****.  ",
"  .*****................................................*****.  ",
"  .*****................................................*****.  ",
"  ............................................................  ",
"  ............................................................  ",
"  ............................................................  ",
"  ............................................................  ",
"                                                                ",
"                                                                "};
