/* XPM */
static char * chest_open_xpm[] = {
"64 64 154 2",
"  	c #221F1F",
". 	c #3A3838",
"+ 	c #A7A09E",
"@ 	c #A39A96",
"# 	c #B0A197",
"$ 	c #A49D99",
"% 	c #9E9492",
"& 	c #ABA29E",
"* 	c #B4A9A4",
"= 	c #2A2226",
"- 	c #9B918D",
"; 	c #8B817D",
"> 	c #92857E",
", 	c #8E8885",
"' 	c #898076",
") 	c #96908B",
"! 	c #958A84",
"~ 	c #998B86",
"{ 	c #8C7D77",
"] 	c #857B79",
"^ 	c #897E7B",
"/ 	c #8D8481",
"( 	c #998E8B",
"_ 	c #958D8A",
": 	c #837A76",
"< 	c #87817C",
"[ 	c #443B3C",
"} 	c #928582",
"| 	c #959291",
"1 	c #4B3D3C",
"2 	c #1A1619",
"3 	c #120E11",
"4 	c #1D191C",
"5 	c #201C1E",
"6 	c #221E21",
"7 	c #1D1920",
"8 	c #090909",
"9 	c #3C3434",
"0 	c #110D0E",
"a 	c #151215",
"b 	c #4B3E41",
"c 	c #262124",
"d 	c #080507",
"e 	c #3A2E33",
"f 	c #181417",
"g 	c #0A0708",
"h 	c #353232",
"i 	c #040304",
"j 	c #373535",
"k 	c #2B2429",
"l 	c #C8C7C7",
"m 	c #BBBABA",
"n 	c #8C8788",
"o 	c #767070",
"p 	c #756C6B",
"q 	c #6F686A",
"r 	c #343131",
"s 	c #5E595D",
"t 	c #67605C",
"u 	c #635D61",
"v 	c #5C5559",
"w 	c #565153",
"x 	c #D1D0D0",
"y 	c #C4C3C3",
"z 	c #C0BFC0",
"A 	c #7E7876",
"B 	c #6C656A",
"C 	c #7D7472",
"D 	c #726966",
"E 	c #676064",
"F 	c #6C6364",
"G 	c #786E70",
"H 	c #695F61",
"I 	c #C0BFBF",
"J 	c #9F9B9B",
"K 	c #8E8989",
"L 	c #D0CFCF",
"M 	c #B7B2B2",
"N 	c #8A7F80",
"O 	c #464145",
"P 	c #635A5C",
"Q 	c #464248",
"R 	c #968F90",
"S 	c #817674",
"T 	c #2E292C",
"U 	c #7E7979",
"V 	c #2E2827",
"W 	c #CCCBCB",
"X 	c #7A716E",
"Y 	c #4E464A",
"Z 	c #ACA5A4",
"` 	c #4F494B",
" .	c #B8B4B4",
"..	c #AFABAB",
"+.	c #847F80",
"@.	c #3D383A",
"#.	c #635956",
"$.	c #5C5355",
"%.	c #534D51",
"&.	c #998F90",
"*.	c #4C4344",
"=.	c #534A4C",
"-.	c #433D42",
";.	c #3D3739",
">.	c #352C31",
",.	c #322B2C",
"'.	c #B8AEAA",
").	c #31272A",
"!.	c #AFA8A7",
"~.	c #281F23",
"{.	c #30FF4F",
"].	c #B2A4A1",
"^.	c #514545",
"/.	c #CCBBB2",
"(.	c #D7C9C1",
"_.	c #D7C9BC",
":.	c #D4C4BC",
"<.	c #DAC9BD",
"[.	c #DECBC1",
"}.	c #594E51",
"|.	c #CCB8AB",
"1.	c #D9C7BF",
"2.	c #E2CCC4",
"3.	c #DDD1CC",
"4.	c #47403F",
"5.	c #A19692",
"6.	c #524749",
"7.	c #786E6B",
"8.	c #5A4D4C",
"9.	c #595153",
"0.	c #A99E9C",
"a.	c #716766",
"b.	c #5C514D",
"c.	c #B49F9A",
"d.	c #443936",
"e.	c #6B615E",
"f.	c #615659",
"g.	c #685C5C",
"h.	c #625454",
"i.	c #413635",
"j.	c #61514E",
"k.	c #D3BEB3",
"l.	c #C4B1A5",
"m.	c #BAA698",
"n.	c #AB9B94",
"o.	c #B29E90",
"p.	c #B5A49A",
"q.	c #BDADA5",
"r.	c #CAB6AD",
"s.	c #5A4943",
"t.	c #4E413C",
"u.	c #483C37",
"v.	c #604F4E",
"w.	c #392D2E",
"                                                                                                                                ",
"                                                                                                                                ",
"    . . + + @ + @ + + + + + @ + + @ @ @ @ @ # @ @ + @ @ $ $ @ @ % @ @ $ @ @ @ + @ $ @ @ @ @ & + & * & + + $ $ $ $ + $ $ + =     ",
"    . . - ; > > > ; , > > > > ' ) > > ! > > ' > ! > ! ~ ! ! ! ; ' > ' { ; ~ > > ~ ~ ! ! ~ ~ > ! ; ; ] ' ; ; ; ; ' ; ^ ; ; =     ",
"    . . - , / / ; > , , , ; ; ) , ) ) ) ) ~ ) ) - - - - - - - - ! ) ) ) ( _ ~ - _ - - - ! ; ; ; ; / : < < / < ; ; ^ < < ; [ =   ",
"    . . - > , } ; , ! ; ! < > , ) ) ) | ) ) ) ) ( - ) - - - - - ! ) ) ) ! _ ( ! _ _ - - ~ ; ; ; ; / : ; < ; ; ; < ; ; ^ ; 1 =   ",
"    . . . 2 3 2 2 2 4 5 4 5 5 6 6 4 6 6 4 6 4 4 5 2 4 5 4 5 4 4 4 4 4 4 4 4 4 4 6 4 4 4 4 4 4 4 4 2 4 4 7 5 4 4 2 4 4 4 8 9 [ = ",
"    . . . . 2 0 a 2 2 2 2 4 2 5 4 4 6 4 4 4 7 7 2 5 4 2 4 4 4 4 4 4 4 4 4 4 4 4 4 4 4 4 4 4 4 4 4 4 4 4 4 4 4 4 4 4 2 4 8 9 b = ",
"    . . . . 2 3 2 a 2 2 5 4 5 2 4 7 6 4 6 4 5 5 5 5 5 4 5 4 5 4 2 4 4 4 5 4 4 4 2 4 4 4 2 4 4 4 4 4 4 4 4 4 4 4 4 4 4 4 5 8 9 1 ",
"    . . . . . 4 0 2 2 4 4 6 6 6 6 6 6 6 6 6 6 6 5 5 5 5 5 5 5 5 4 6 6 4 6 5 6 6 c 4 6 6 4 c 4 c c 4 c 4 c 5 6 4 6 6 6 5 5 8 9 [ ",
"    . . . . . 2 0 2 2 2 4 c 5 5 5 6 5 5 5 5 6 5 4 6 4 6 6 4 6 c 6 4 6 6 6 4 4 6 4 6 6 4 c 4 4 5 7 6 6 6 6 6 6 6 4 6 6 4 4 6 d e ",
"    . . . . . . 2 0 a f 2 2 4 2 4 7 5 5 5 7 4 4 4 4 4 4 4 4 2 4 4 4 4 4 5 4 4 6 4 4 4 4 4 4 4 4 4 4 4 4 4 2 4 4 4 4 4 4 4 4 8 9 ",
"    . . . . . . 2 a f f 2 2 4 2 4 5 5 4 4 7 4 5 6 4 4 4 6 4 4 4 4 4 4 7 4 4 4 4 6 4 6 4 4 4 4 4 4 4 4 4 4 5 4 5 4 4 4 2 4 5 4 g ",
"    . . . . . . . 2 3 f 2 4 4 6 4 5 6 5 5 5 6 5 6 6 6 4 6 6 4 c 5 5 6 6 6 7 6 4 6 6 4 6 4 c 5 c 6 6 6 6 6 6 7 6 6 4 6 6 5 2 5 g ",
"    . . . . . . . 4 0 f f 2 2 4 4 4 4 5 4 4 6 4 4 4 4 6 4 4 c 4 4 6 4 4 6 4 4 6 4 6 4 4 6 6 7 7 4 4 6 6 4 4 5 6 4 4 7 4 4 4 4 6 ",
"    . . . . . . . . 2 0 f a 2 2 2 2 4 4 4 4 4 4 4 2 4 4 4 4 4 4 4 4 4 2 4 4 4 4 4 4 4 4 2 4 4 2 4 2 4 2 4 4 4 2 4 4 4 4 2 2 4 2 ",
"    . . . . . . . . 2 a a a 2 2 4 2 2 2 4 4 4 4 2 4 4 4 2 4 2 4 4 4 2 4 4 4 4 4 2 4 4 4 4 2 4 2 4 4 4 4 2 2 4 2 4 4 2 2 4 2 2 2 ",
"    . . . . . . . . . 2 0 a f 2 4 4 4 4 4 4 6 6 4 6 4 4 4 4 4 2 4 6 4 c 4 4 2 6 4 4 4 4 4 2 6 4 4 4 4 4 6 5 5 4 4 5 2 4 4 6 2 4 ",
"    . . . . . . . . . 5 3 f a 4 4 2 4 2 4 4 4 4 2 4 2 4 a 4 2 2 4 2 4 4 2 4 4 4 2 4 4 2 4 4 2 4 2 2 2 4 4 2 4 7 4 4 4 4 2 2 4 4 ",
"    . . . . . . . . . . 4 3 a 3 2 a a 2 4 2 2 2 4 a a 2 4 2 2 2 2 a 2 2 2 2 a 2 2 2 2 2 2 2 2 2 2 2 2 2 4 2 2 a a 2 2 a a 2 a 2 ",
"    . . . . . . . . . . 4 0 3 a a a a a 2 4 a 2 a 4 4 a 2 2 2 2 2 a a 2 2 2 2 2 2 2 a 2 2 2 2 2 f f 2 2 2 a 2 2 2 a 2 2 2 2 a 2 ",
"    . . . . . . . . . . . 4 3 3 a a 2 4 2 2 2 2 4 4 a 2 2 2 2 a 4 a 2 2 4 2 a 2 2 a 2 2 2 2 4 2 2 4 4 2 7 2 2 2 4 4 2 2 2 4 2 2 ",
"    . . . . . . . . . . . 4 3 3 3 a 2 a a 2 2 4 4 2 4 2 2 2 4 4 4 a 4 2 4 4 2 2 2 4 2 a 2 2 4 2 4 4 4 4 2 4 2 2 2 2 2 2 a 2 2 2 ",
"    . . . . . . . . . . . . 4 3 3 3 3 a a 2 a a a 2 3 a a a a a a a a a a a a a a a a a a a a 2 a a a a a a a a a a a a a a a a ",
"    . . . . . . . . . . . . 4 3 0 0 3 3 a a 3 a a a a a a a a a a a a a a a a a a a a a 2 a a a a a a a a a a a 3 a a a a a a 3 ",
"    . . . . . . . . . . . . . 2 0 0 0 a 3 a 3 3 3 3 3 3 3 0 3 0 3 3 3 a 3 3 3 3 3 a 3 3 3 a 3 3 a 0 0 3 0 3 3 3 3 3 a 3 3 a 3 3 ",
"    . . . . . . . . . . . . . 4 3 3 a 0 3 a 3 3 3 3 3 3 0 0 3 0 3 3 0 0 0 0 0 0 3 0 3 0 0 3 3 3 0 0 3 3 0 0 3 3 3 3 a 3 3 3 3 3 ",
"    . . . . . . . . . . . h . 0 8 8 8 8 i 8 i 8 8 i 8 8 8 8 8 8 8 8 8 8 8 8 8 8 d 8 8 8 8 8 8 8 8 8 8 d 8 8 8 d 8 8 8 8 8 i 8 8 ",
"    . . . . . . . . . h h 2 4 8 8 i i i 8 i 8 8 8 8 8 8 8 8 8 0 8 8 8 8 8 8 8 8 8 8 8 8 8 8 8 i i 8 i i i i i 8 i 8 i i i i i i ",
"    . . . . . . . h h 2 2 4 2 8 8 8 i 8 i 8 8 i i 8 8 8 8 8 i i 8 8 8 8 8 8 8 8 d 8 8 8 8 i i i i i i 8 i 8 8 8 i i i i i i i 8 ",
"    . . . . . h h 2 2 2 2 2 4 8 i 8 8 i i i i i i i i i 8 i i 8 8 i i i i 8 i i i i i i i i i 8 i 8 i i i i d i 8 i 0 i 0 8 8 6 ",
"    . . . h h 2 4 2 2 2 2 2 2 8 8 i i 8 8 8 8 i i i i i i i i i i d i i i i i i i i d i d i i i i i i i i i 8 i i i i i 8 6 6 c ",
"    . h j f 2 2 2 2 2 2 2 2 2 8 8 8 8 8 i i i i 8 i i 8 i i i i i i i i i i i i i i i i i i i i i i i i i i 8 8 8 8 8 6 6 6 k c ",
"  l m m _ n c o p o p q r s s s s s s t u u u t s u u u s s u v v s v w v v w v w v w w w w w p t t w w 7 m m | | n 6 6 c c k k ",
"  x y z % n 4 A B C p D r u E E u u u E F u u s E u u u v u B E E t u E v v s s u u s u s w v / p G H u 6 I I J J K 4 c 6 5 k = ",
"  L m M J _ f ^ ] N ^ C O B E F u q B H E u E F P E s s v s s w w v v v v s s s Q s u s u u s R S ] G p T y J J K U V c c c 6 = ",
"  W M J % _ d ( } } / ^ O o X Y E G B B B B E D B B B E M M Z J A d ` u u B B B B B B B B E s $ ^ _ N ] c  .| | U o 6 c c = c c ",
"  l ..+.n / d & } ( } < @.#.$.O v P P P P P v v s u v w ..J n < s 8 %.t u u u u u u u s u u v Z ^ &._ N c ..| < A o 4 c 6 c = c ",
"  m R o H G 4 * N N ~ ] 9 *.` Q =.` Y [ -.[ [ @.;.;.>.9 J n n E %.i a ,.r -.O -.-.-.;.-.-.-.-.'.! N ~ ^ ).!.q A C G 2 ~.c = c 6 ",
"  ..$ _ {.U >.].^ ( ~ ] ^./.(._._._.(.:.<._.[._.(.(./.M + U p q }.i ^ /.l :.:.|.|.1.[.2.2.3.'.* N ( N ] ,._ {.: A q 2 6 6 c c c ",
"  J K R {.G >.].S N N p 4.: 5.5.5._ ! / ; } ; } 5.% % ^ + p p 6.w i X @ 5.! ; : ^ { ^ 5.5.% N * ^ N ] 7.9 K {.^ A E 4 6 5 c = c ",
"    / U H U ).].S S S p [ 7.C D p ; ; ; ^ ^ ; ; ; ^ ! ^ + r c 0 ` i 8.^ / / ; ; : ] : ] ] N S Z : ^ ] 7.9 n H ] A c 2 6 6 c 6 c ",
"  9.. B S o ,.$ ^ , / p [ X ] D ; ; ] : : ] ' : ] ] ^ ^ J 4 i 4 =.i ^./ ( , ; } > ; ; { ! N S 0.^ } N C ;.n A a.4 Y f c c = 6 = ",
"  _ #.-.G p >.$ D / p a.[ 7.] F A ] A : : ] : X C C ; ] $ 5 i 8 =.i b.( ; ; ; ; ; ; ^ ^ ~ N ] c.p / 7.7.d.n ] 5 ` $.a = 6 4 6 = ",
"  ( C $.-.q T $ a.e.a.a.[ X : : : : : : : ] : : ] ] U / + a.a.8.O i 8._ ; ; ; ; ] ; ; ; ~ N ] 5.a.F a.7.@./ k =.q $.5 c c 7 6 = ",
"  ( U G }.@.>.5.7.e.F D [ C ] C ] C C C : : : : : ] / / $ v $.$.[ i 8._ ^ ; ^ ^ : ^ ^ { ^ N S 5.a.F C X @.k ` q q $.a = c c c = ",
"  % U +.C f.r ( p X X a.4.X ] ] : C ] : : : ] { ] ; > < i i i i i i 8.! / ; ; } > / { ; { : C % 7.C 7.p ;.$.q p q s 0 c 6 = ~.= ",
"  5.q S G H >._ F o X a.[ D : : ; X C : : : : ; ; ; < ; P b.$.$.$.8.$.> / ; ; ; / ; ] ; > : S &.7.p D a.[ / g.q E w 3 4 c 6 = = ",
"  5.p p E g.r ! F e.7.F [ D S ] ; ; : : : ; ] ; ] ] ] ; > / > / ; ] ; ^ ; ; ; ^ ; ] ; ; ; : X ( a.e.B h.;.S v F #.#.3 c c ~.~.= ",
"  ( p 7.B E >._ F e.a.t [ C ; ; ; : ] A ] ; ] ; ] ] A C : : ] ] ] ] : ] ^ ] ; ; ; / ; ; ^ X X - q F F h.9 ^ p v P P 3 7 c c c = ",
"  % H B B H 9 _ B a.a.F ;.^ ; ; ] : ] { C C ] ] ^ ] ; ; / ] ] / ] ] : S ] ; ] ; ; / > ; a.S a.&.e.7.{ $.9 ] w w v f.2 c = c c k ",
"  ( H q F H ,._ q h.#.h.;.; ; ; ] a.X : ; ] ] ] ^ ; ; ; } ^ } / : ; ^ ^ X > ; ; ; ; } ; S p g.&.h.6.: h.,.S }.s #.$.a = ~.7 c ~.",
"  - H u B H = U #.h.#.$.i.D S ^ X p ; } ; ; ; > ; ; ' < } / ; ^ X S X 7.S S S X ; ; > S g.g.u n g.$.^.#.5 ] v w w w a 6 = k c c ",
"  5.H u Y H ~.C }.}.$.$.;.7.] 7.7.; ; ' ; ; } / X 7.; ; } / } / S S S S S X X X S S p h.#.8.6.] $.$.^.#.f F -.=.%.=.4 5 7 c c = ",
"  ! H P }.8.V U #.P #.#.;.X : 7.S X - - ~ ! > } S C X p S X 7.X e.7.X 7.F 7.X D D h.P 8.6.=.=.] P H g.h.8 P Y Y %.%.4 6 6 c k c ",
"  } P P f.}.6 p H e.$.$.T a.] : : X 7.X X D p X D a.a.h.g.h.#.#.#.g.#.h.= h.h.b.j.8.$.8.6.8.6.] h.H H f.8 H Y %.8.w 7 4 7 c k c ",
"  S P $.Y -.f E $.}.w %.,.#.P h.$.b.@.h.h.h.v v $.$.$.#.h.h.h.$.$.$.$.b.= w v w w w w ` =.%.8.: w w h.}.8 H 6.%.` w f c 4 c k 8 ",
"  p =.=.;.-.3 v *.*.=.` ,.T ,.,.T ,.,.T ,.V T V ,.r r ,.,.,.T T r r ,.,.,.r ,.V r ,.,.,.e ,.).: w f.h.f.,.P Y %.%.` 2 c 6 3 3 k ",
"k.2.2.l.m.n.o.o.} c ( o.n.n.n.# m.n.c.c.n.m.m.p.p.m.# # m.m.m.# # m.q.m.r.r.l.l.l.|.l.|.|.|./.|.r.8 n.r.'.q.q.l.q.[.<.f 2 = ).).",
"1 s.s.t.u.1 u.1 t.8 ,.v.v.v.h.h.8.b.8.8.v.v.v.8.8.b.b.8.8.8.8.8.b.8.b.b.j.j.h.j.h.h.h.#.h.h.j.j.j.d *.8.$.$.8.8.b.#.h.5 w.).~.,.",
"b v.h.6.^.1 1 1 ^.0 w.1 d.d.[ d.[ [ [ i.6.^.Y ^.Y Y s.6.Y Y 8.=.8.8.8.8.=.=.8.6.^.^.6.^.6.6.=.^.8.i 1 d.6.8.i.d.;.Y ^.5 e ).>.3 ",
"6.v.s.1 1 1 1 u.u.0 ,.1 1 1 u.i.i.i.i.i.i.d.i.i.d.d.i.i.i.9 ^.t.t.*.t.*.t.t.^.^.^.;.i.i.d.d.i.i.d.d e 9 d.[ 9 9 i.b d.4 5 g a   ",
"5 5 5 5 4 5 2 5 2 i V V ).V V ).V = = ).= V V = ,.).).V V ,.,.).).).).,.w.,.,.,.,.V V V V V V ~.= i f f 2 a 5 f 5 ,.5 d i       ",
"5 0 a d i i i i i i i i i i i i i i i i i i i i i i i i i i i i i i i i i i i i i i i i i i i i i i i i i i i i i i 0           "};
