/* XPM */
static char * chest_close_xpm[] = {
"64 64 171 2",
"  	c #221F1F",
". 	c #3A3838",
"+ 	c #B5B2B1",
"@ 	c #B3AEAD",
"# 	c #B0ACAB",
"$ 	c #B3B0AF",
"% 	c #B4B1AF",
"& 	c #B7B4B3",
"* 	c #ACA8A6",
"= 	c #AFABAB",
"- 	c #B4AFB0",
"; 	c #A39D9C",
"> 	c #C1BFBF",
", 	c #A6A1A0",
"' 	c #ACA5A4",
") 	c #A5A09E",
"! 	c #AEA7A8",
"~ 	c #AAA19E",
"{ 	c #9C9593",
"] 	c #9B918D",
"^ 	c #97908D",
"/ 	c #958C8A",
"( 	c #B0A8A7",
"_ 	c #B2A7A8",
": 	c #353131",
"< 	c #2E2827",
"[ 	c #9E9A99",
"} 	c #262124",
"| 	c #433B3C",
"1 	c #DAD0CA",
"2 	c #DCD1CA",
"3 	c #D9CDC3",
"4 	c #DACEC8",
"5 	c #DCD1C7",
"6 	c #DBD0C7",
"7 	c #D6CAC2",
"8 	c #D0C6C0",
"9 	c #DACDC5",
"0 	c #292226",
"a 	c #322B2C",
"b 	c #4B3D3D",
"c 	c #4A3E40",
"d 	c #948A85",
"e 	c #9A8E8A",
"f 	c #928682",
"g 	c #8D8381",
"h 	c #9A8C86",
"i 	c #8B817D",
"j 	c #211C1D",
"k 	c #3E3739",
"l 	c #D3D2D2",
"m 	c #C4C3C3",
"n 	c #8C8788",
"o 	c #6A615E",
"p 	c #87817C",
"q 	c #817674",
"r 	c #857B79",
"s 	c #A39A96",
"t 	c #C0BFC0",
"u 	c #BDBCBC",
"v 	c #8E8989",
"w 	c #392E2E",
"x 	c #110D0E",
"y 	c #D0CFCF",
"z 	c #B7B2B2",
"A 	c #92857E",
"B 	c #8C7D77",
"C 	c #7E7979",
"D 	c #1B161A",
"E 	c #191416",
"F 	c #231E21",
"G 	c #CCCBCB",
"H 	c #67605C",
"I 	c #B8B4B4",
"J 	c #959292",
"K 	c #767070",
"L 	c #0D0A0C",
"M 	c #130E12",
"N 	c #847F80",
"O 	c #020102",
"P 	c #171418",
"Q 	c #161214",
"R 	c #080507",
"S 	c #090709",
"T 	c #1E191C",
"U 	c #897E7B",
"V 	c #7D7472",
"W 	c #756C6B",
"X 	c #2B2529",
"Y 	c #968F90",
"Z 	c #6C6364",
"` 	c #2E292C",
" .	c #1E1B20",
"..	c #7E7876",
"+.	c #FFDD30",
"@.	c #4E464A",
"#.	c #534A4C",
"$.	c #5A4D4C",
"%.	c #524749",
"&.	c #656063",
"*.	c #635C61",
"=.	c #635A5C",
"-.	c #5B5559",
";.	c #565154",
">.	c #544E51",
",.	c #433D42",
"'.	c #685D5C",
").	c #6F686A",
"!.	c #4C4344",
"~.	c #6D656A",
"{.	c #4F494B",
"].	c #898076",
"^.	c #695F61",
"/.	c #3D383A",
"(.	c #615659",
"_.	c #5F5A5A",
":.	c #B1A6A3",
"<.	c #595153",
"[.	c #3B3435",
"}.	c #464248",
"|.	c #B8AEAA",
"1.	c #CCBBB2",
"2.	c #D7C9BC",
"3.	c #D9C7BF",
"4.	c #D4C4BC",
"5.	c #DAC9BD",
"6.	c #DBCBC3",
"7.	c #BCB3AE",
"8.	c #D3BEB3",
"9.	c #CCB8AB",
"0.	c #E2CCC4",
"a.	c #DDD1CC",
"b.	c #B4A9A4",
"c.	c #5C5355",
"d.	c #736966",
"e.	c #47403F",
"f.	c #837A76",
"g.	c #A19692",
"h.	c #7A716E",
"i.	c #786E6B",
"j.	c #A99E9C",
"k.	c #8E8885",
"l.	c #5C514D",
"m.	c #897F80",
"n.	c #716766",
"o.	c #281F23",
"p.	c #362C31",
"q.	c #635956",
"r.	c #625454",
"s.	c #998F90",
"t.	c #514545",
"u.	c #594E51",
"v.	c #31272A",
"w.	c #C4B1A5",
"x.	c #BAA698",
"y.	c #AB9B94",
"z.	c #B29E90",
"A.	c #B5A49A",
"B.	c #B0A197",
"C.	c #B49F9A",
"D.	c #BDADA5",
"E.	c #C5B3AA",
"F.	c #CAB6AD",
"G.	c #DDC7C1",
"H.	c #4E413C",
"I.	c #5A4943",
"J.	c #483C37",
"K.	c #443936",
"L.	c #604F4E",
"M.	c #61514E",
"N.	c #413635",
"                                                                                                                                ",
"                                                                                                                                ",
"    . . . . . . . . . . . . . . . . . . . . . . . . . . . . . . . . . . . . . . . . . . . . . . . . . . . . . . . . . . . .     ",
"    . . . . . . . . . . . . . . . . . . . . . . . . . . . . . . . . . . . . . . . . . . . . . . . . . . . . . . . . . . . .     ",
"    . . . . . . . . . . . . . . . . . . . . . . . . . . . . . . . . . . . . . . . . . . . . . . . . . . . . . . . . . . . .     ",
"    . . . . . . . . . . . . . . . . . . . . . . . . . . . . . . . . . . . . . . . . . . . . . . . . . . . . . . . . . . . .     ",
"    . . . . . . . . . . . . . . . . . . . . . . . . . . . . . . . . . . . . . . . . . . . . . . . . . . . . . . . . . . . .     ",
"    . . . . . . . . . . . . . . . . . . . . . . . . . . . . . . . . . . . . . . . . . . . . . . . . . . . . . . . . . . . .     ",
"    . . . . . . . . . . . . . . . . . . . . . . . . . . . . . . . . . . . . . . . . . . . . . . . . . . . . . . . . . . . .     ",
"    . . . . . . . . . . . . . . . . . . . . . . . . . . . . . . . . . . . . . . . . . . . . . . . . . . . . . . . . . . . .     ",
"    . . . . . . . . . . . . . . . . . . . . . . . . . . . . . . . . . . . . . . . . . . . . . . . . . . . . . . . . . . . .     ",
"    . . . . . . . . . . . . . . . . . . . . . . . . . . . . . . . . . . . . . . . . . . . . . . . . . . . . . . . . . . . .     ",
"    . . . . . . . . . . . . . . . . . . . . . . . . . . . . . . . . . . . . . . . . . . . . . . . . . . . . . . . . . . . .     ",
"    . . . . . . . . . . . . . . . . . . . . . . . . . . . . . . . . . . . . . . . . . . . . . . . . . . . . . . . . . . . .     ",
"    . . . . . . . . . . . . . . . . . . . . . . . . . . . . . . . . . . . . . . . . . . . . . . . . . . . . . . . . . . . .     ",
"    . . . . . . . . . . . . . . . . . . . . . . . . . . . . . . . . . . . . . . . . . . . . . . . . . . . . . . . . . . . .     ",
"    . . . . . . . . . . . . . . . . . . . . . . . . . . . . . . . . . . . . . . . . . . . . . . . . . . . . . . . . . . . .     ",
"    . . . . . . . . . . . . . . . . . . . . . . . . . . . . . . . . . . . . . . . . . . . . . . . . . . . . . . . . . . . .     ",
"    . . . . . . . . . . . . . . . . . . . . . . . . . . . . . . . . . . . . . . . . . . . . . . . . . . . . . . . . . . . .     ",
"    . . . . . . . . . . . . . . . . . . . . . . . . . . . . . . . . . . . . . . . . . . . . . . . . . . . . . . . . . . . .     ",
"    . . . . . . . . . . . . . . . . . . . . . . . . . . . . . . . . . . . . . . . . . . . . . . . . . . . . . . . . . . . .     ",
"    . . . . . . . . . . . . . . . . . . . . . . . . . . . . . . . . . . . . . . . . . . . . . . . . . . . . . . . . . . . .     ",
"    . . . . . . . . . + @ # $ @ @ + @ @ @ @ $ % $ + + + + + & & & + % @ $ $ $ $ @ $ + % $ $ + + + + + * + + + + + + = @ @ - # @ ",
"    . . . . . . . + * ; ; ; ; ; ; ; ; ; ; ; ; ; ; ; ; ; ; ; ; ; ; ; ; ; ; ; ; ; ; ; ; ; ; ; ; ; ; ; ; ; ; ; ; ; ; ; ; ; ; ; ; ; ",
"    . . . . . > > * # = = , ' ' ' ) , , ; ; ' ' ) ) ' ' ' ' * ! ' ' ' ' ~ ~ ) ; ; ; ; ; ) ; , , ; , ' ' ' * * * * * * ' ' , , ; ",
"    . . . { { { { { { { { { { { { { { { { { { { { { { { { { { { { { { { { { { { { { { { { { { { { { { { { { { { { { { ] ^ ] / / ",
"    . ( ( ( ( ( _ ( ( ( * * ' * ' ' ' * * * * * * * * * * * * * * * * ' ' ' ' ' * * * * * * * ' , , , * * * * * * * * * * * : < ",
"  ; ; ; ; ; ; ; ; ; ; ; ; [ [ [ [ [ [ [ [ [ [ [ [ [ [ [ [ [ ; [ [ [ [ [ [ [ [ ; [ [ [ [ [ [ [ [ [ [ [ [ [ [ [ [ [ [ [ [ } } | | ",
"  1 1 1 1 1 1 1 1 2 3 4 3 1 5 6 7 8 3 4 3 9 9 3 7 3 3 7 7 3 1 1 5 3 3 3 5 6 2 5 5 6 2 2 2 3 3 4 3 2 1 1 2 1 1 1 1 1 0 a b c | | ",
"  d d d d d d d d d d e d ] / f g d e d d e h h e e h h e d h d h e h e h e e e h ] ] f d ^ e { d i f f i i i i i i j k | | | a ",
"  l m m { n o e e e d d e d f d f n g e d d / e d d / d p q r d d e d d d d d d f e s ~ s , # ' i g i i g t u ; [ v j k w a x x ",
"  y u z ; / o g g d d f g d d f d A f i i d d d d d d d i B d B B i h f A h h d f h d A h i g B B i i i i > [ ; v C j k D E F } ",
"  G + ; { / H f g f i g d e e e e h e e e e e ^ ] ] ] ] ] d e ^ e e e e e e e ] ] d i i i i g q B i i i i I J J C K L M F F } } ",
"  m = N n g O L M D P M Q L L M L L R O O S R R R S S S S R R R R R S L S S L L S L M M Q Q S L Q T x L O @ J U V W D F } } X X ",
"  u Y K Z W O a ` ` ` ` D F D j F X X } 0 } 0 } } } } F  .T T D D D F F  .F } } Q X } X } j L T Q E D D O ' W ..K K j } F F X } ",
"  = ; / +...L | @.#.$.%.| &.*.=.=.Z *.=.=.=.=.=.-.*.-.-.;.;.;.#.#.>.>.;.>.;.-.-.,.-.-.-.-.>.#.V '.=.,.#.0 / +.q ..).X } } } F } ",
"  ; / / +.W R ] U f g r !.K K @.Z W ).~.~.~.Z ~.~.~.~.*.% + * [ ..R {.*.*.~.~.~.~.~.~.~.~.Z =.; U / g r } v +.]...Z F } } } } } ",
"    g C ^...R ~ i / f U /.=.-.!.-.=.=.=.=.=.-.-.(.*.-.-.* [ n U =.S >.=.*.*.*.*.*.*.*._.*.*.-.:.i e e i } v ^.r V F j } F } } } ",
"  <.. Z r W j ( i g h r [.!.@.@.{.{.@.| ,.| | /.k /.[.[.; n g Z >.O Q a [.,.}.,.| ,.| }.,.,.,.|.f g d U ` v ..Z j @.D } } } } F ",
"  / (.| W W a :.B / / r @.1.7 2.2.2.3.4.5.2.6.2.4.4.1.7.; r W W ;.O r 1.4.8.8.8.9.4.6.0.0.a.|.b.i / g r a g r j #.c.D F F } } F ",
"  e V c.| Z a ' q i i d.e.f.g.] g.e d f f f i i g.{ g.i ; W W #.c.O h.s g.d i q r i i s g.{ i b.r g f.i.[.g < #.Z c.T F j } } } ",
"  e ..K c.| a , V f.r W | W V d.W i i B B B i i i i d r ; [.j M #.O $.U g g i i f.r q q f.B q * r r r i.[.< #.Z ~.-.D F } } } } ",
"  ] r r K =.a j.U g g W | h.f.W U i r f.f.f.r f.r r B U ; T O T #.O %.f e k.i f f i i r f g q j.U f g K k c.Z W )._.E } } } } } ",
"  e U r r Z a j.W g d.d.| h.r Z q r q q q f.q h.V ..g r ; T O x #.O l.e i U i i i i i B / U r j.d.n i.i.| / W Z W =.Q } F T F X ",
"  ] m.U U '.a s n.Z Z n.| h.r V q q q q f.r f.f.r r r g ) Z n.>.!.O l.d i i i i f.i i i h g r s n.Z n.i.| / n.W W =.j } } T j X ",
"  e r r U =.: { W Z Z d.| h.U q r q V V q f.q f.r B f p ; c.c.$.,.O $./ B i U B f.r U B B m.q g.Z Z V h.| / r W ~.-.Q } } } } X ",
"  e ..r U Z : e W h.V d.| V f.r q V f.f.q q B B r g g U O O O O O O $.d g i g g g g r g r f.V { V V i.W | e ..W Z c.M } F } o.X ",
"  g.W q K ^.p.e Z W V Z | d.q q U V V q f.q f.g i i i i H c.q.r.c.l.c.f f i i i g i r B f f.V e W W W Z | g o Z Z -.M T } } } X ",
"  { W W Z ^.: f Z Z W Z | W q r i i q q q i r i r f.r i g g g g g r g i U i i U i r i i i q V e n.Z Z r.k r c.Z (.(.M } } } F } ",
"  e W W ~.^.: / Z Z d.Z | q i i i q B q r i B i f.f...V q q r r r r q f.B r i i i g g B B h.h.e Z Z Z r.[.U W (.=.=.M F } } F } ",
"  e Z ~.Z ^.[./ d.n.Z Z /.B i i f.f.r r ..V B r r r i i g f.p g r B q q f.i r i i g g g W V d.e Z W B r.[.r ;.;.(.(.D } } F } X ",
"  e *.Z Z ^.a / Z r.q.(.k i i i q d.V q i r r r B i B i g g f g f.i B U h.g g i i i g i V d.'.s.r.%.f.r.a r ;.=.=.;.Q } F F } F ",
"  { Z *.Z *.} r '.r.=.r.k W V B h.n.i g U U i f i U f.i f f i U V V h.h.q q V i.i i f q o o '.n '.c.t.(.j r -.c.c.;.Q F } } } } ",
"  { '.=.{.^.} ..$.u.u.;.[.W f.i.i.g i i i i g g h.h.i U f i g g q q q q q h.h.h.q q d.r.(.$.%.r c.c.!.=.E Z ,.#.#.#.T j F } } X ",
"  f *.(.c.$.0 ..=.=.q.r.[.h.q h.q h.] ] e f f f q V h.d.V h.i.h.o i.h.i.Z i.V d.d.r.=.$.t.#.%.U =.*.'.r.L '.@.@.>.#.T F j F X } ",
"  f =.=.r.c.F W '.'.r.c.a d.r f.V h.W h.h.d.d.W d.d.n.r.q.q.q.q.q.'.q.r.0 r.r.l.c.u.;.$.%.$.%.r r.^.^.r.L ^.%.#.$.$.F j T F X } ",
"  q =.c.}.!.E Z ;.;.c.#.a q.'.r.c.c.k r.r.r.c.c.c.c.c.(.(.(.r.c.c.-.c.c.} -.-.;.;.>.;.{.#.$.$.r -.c.r.u.S *.@.>.>.>.D F T } < x ",
"  d.#.%./.,.Q -.!.@.#.%.a ` a a a a v.v.v.` a a a a a a a a a a a a a a a : a v.a a a a : ` v.r ;.-.r.(.a =.@.#.#.#.D } F M x } ",
"8.0.0.w.x.y.z.y.f 0 ] y.y.y.y.A.A.y.B.C.y.A.A.A.A.A.B.B.A.A.A.B.B.A.D.D.E.E.w.w.E.E.w.F.F.1.1.F.F.L y.E.D.D.D.E.D.G.3.E E } v.v.",
"H.I.t.H.J.J.K.H.H.L v.L.L.L.r.r.l.l.$.$.M.$.L.$.$.l.l.$.$.$.$.$.l.$.l.M.M.M.r.M.r.r.r.q.r.M.r.M.M.R H.$.r.c.$.$.$.=.r.j a v.o.a ",
"t.L.r.t.t.b b c !.x w b | | | | | | | N.t.t.t.%.@.%.%.%.t.t.#.#.#.#.%.$.%.%.$.%.t.@.%.t.%.%.%.t.$.R b | #.#.| | N.@.@.j a a p.M ",
"t.$.%.b b b b b J.x a b J.J.J.N.N.N.N.| N.K.[.K.K.K.N.N.N.N.t.t.t.t.!.t.!.!.t.t.t.k N.K.K.K.N.k K.R w [.| | k [.k c | j F S Q   ",
"j j E T j j T j T R v.v.v.v.< < < < < v.X v.< < a a v.v.v.a a v.v.a v.a a a a a a < < v.v.v.< 0 < O D Q T E j D j a j O O       ",
" .M D S O O O O O O O O O O O O O O O O O O O O O O O O O O O O O O O O O O O O O O O O O O O O O O O O O O O O O O L           "};
