/* XPM */
static char * frog_right2_xpm[] = {
"64 64 242 2",
"  	c #221F1F",
". 	c #3A3838",
"+ 	c #69EA45",
"@ 	c #83FC4A",
"# 	c #7DF849",
"$ 	c #83FE48",
"% 	c #57DA44",
"& 	c #77F645",
"* 	c #3CC43E",
"= 	c #33C43B",
"- 	c #3BCB3D",
"; 	c #46D739",
"> 	c #78FA3F",
", 	c #73D049",
"' 	c #3AD23A",
") 	c #35CA3B",
"! 	c #44CD3D",
"~ 	c #65F338",
"{ 	c #34C934",
"] 	c #4BD22C",
"^ 	c #4BE426",
"/ 	c #56F02E",
"( 	c #49CB46",
"_ 	c #29BA36",
": 	c #27C728",
"< 	c #34CA2B",
"[ 	c #28D327",
"} 	c #29CE12",
"| 	c #1BC41B",
"1 	c #35D62B",
"2 	c #39BA3D",
"3 	c #3C9B49",
"4 	c #3DBC41",
"5 	c #16BB1A",
"6 	c #6CD473",
"7 	c #8CEF8F",
"8 	c #5ADD63",
"9 	c #26AA28",
"0 	c #39A949",
"a 	c #42B546",
"b 	c #3BC643",
"c 	c #17B834",
"d 	c #6DEA6C",
"e 	c #0BBA13",
"f 	c #A7E7AA",
"g 	c #DDF6E3",
"h 	c #E7FAE8",
"i 	c #FAF9FB",
"j 	c #FEFFFE",
"k 	c #BBFAC1",
"l 	c #4DD74E",
"m 	c #09C310",
"n 	c #3AA937",
"o 	c #41A648",
"p 	c #C7FEC6",
"q 	c #F4D2F7",
"r 	c #DCD6E2",
"s 	c #55E74D",
"t 	c #429D4A",
"u 	c #3AB446",
"v 	c #B8F4B6",
"w 	c #B8ADC5",
"x 	c #76528D",
"y 	c #6C477B",
"z 	c #AD84BC",
"A 	c #28B22E",
"B 	c #2A9D29",
"C 	c #CFB6D9",
"D 	c #9168A5",
"E 	c #F2EFF5",
"F 	c #5C5377",
"G 	c #070225",
"H 	c #87579C",
"I 	c #000018",
"J 	c #170A38",
"K 	c #310A52",
"L 	c #1A013C",
"M 	c #C9D0CF",
"N 	c #2BC937",
"O 	c #5C3077",
"P 	c #626685",
"Q 	c #36D537",
"R 	c #5FAF68",
"S 	c #46505B",
"T 	c #73BA7A",
"U 	c #6D7A79",
"V 	c #253C38",
"W 	c #5B6E6D",
"X 	c #4E914C",
"Y 	c #296F38",
"Z 	c #365159",
"` 	c #23CC3B",
" .	c #1BCC3B",
"..	c #10D025",
"+.	c #16E435",
"@.	c #1BD438",
"#.	c #25D838",
"$.	c #54CA43",
"%.	c #17CA35",
"&.	c #18C928",
"*.	c #35E630",
"=.	c #27E239",
"-.	c #A7C64A",
";.	c #E4C24D",
">.	c #46964B",
",.	c #0ACC3A",
"'.	c #38D044",
").	c #99CD4F",
"!.	c #F1C351",
"~.	c #FDB644",
"{.	c #E6C553",
"].	c #DAC553",
"^.	c #FBAC37",
"/.	c #FAA92B",
"(.	c #FABD4E",
"_.	c #FAB23D",
":.	c #FFC253",
"<.	c #F29F26",
"[.	c #DA9923",
"}.	c #DBA329",
"|.	c #E7AC34",
"1.	c #4CAC37",
"2.	c #30B34F",
"3.	c #A9B237",
"4.	c #EEB431",
"5.	c #E8A529",
"6.	c #CDC853",
"7.	c #D3C652",
"8.	c #E79D26",
"9.	c #D48C12",
"0.	c #C78F18",
"a.	c #457978",
"b.	c #70B237",
"c.	c #C48A12",
"d.	c #D8951D",
"e.	c #5634CD",
"f.	c #4A6B8B",
"g.	c #B68510",
"h.	c #CD8B13",
"i.	c #D69B23",
"j.	c #5610ED",
"k.	c #512DC2",
"l.	c #329353",
"m.	c #4BB433",
"n.	c #FEB633",
"o.	c #D58A13",
"p.	c #7333FF",
"q.	c #682EFF",
"r.	c #5825F8",
"s.	c #551AD9",
"t.	c #93B330",
"u.	c #6D3FFF",
"v.	c #6539F4",
"w.	c #5A28E4",
"x.	c #591DDE",
"y.	c #5429CB",
"z.	c #D3AE32",
"A.	c #EE9718",
"B.	c #CC9B2A",
"C.	c #E9C71A",
"D.	c #6E40FF",
"E.	c #336A93",
"F.	c #35A651",
"G.	c #F1A022",
"H.	c #7141FF",
"I.	c #6A3DF4",
"J.	c #5936D5",
"K.	c #4F1ED3",
"L.	c #5639C7",
"M.	c #328F68",
"N.	c #19A857",
"O.	c #A1C626",
"P.	c #CEA541",
"Q.	c #D8AA41",
"R.	c #5B36D9",
"S.	c #5232C2",
"T.	c #4838C5",
"U.	c #21E323",
"V.	c #5EA342",
"W.	c #64A34B",
"X.	c #649E51",
"Y.	c #643BE8",
"Z.	c #4E2EBA",
"`.	c #5523D3",
" +	c #4F44C1",
".+	c #438484",
"++	c #41A464",
"@+	c #17C432",
"#+	c #5446BC",
"$+	c #5829D6",
"%+	c #5541C1",
"&+	c #1EF115",
"*+	c #488872",
"=+	c #40A860",
"-+	c #5818E4",
";+	c #514DB7",
">+	c #4E32BB",
",+	c #5F38E2",
"'+	c #723CFF",
")+	c #6D43F4",
"!+	c #752AFF",
"~+	c #7836FF",
"{+	c #6A47EA",
"]+	c #6551D3",
"^+	c #5665AD",
"/+	c #2DEE14",
"(+	c #3AA34E",
"_+	c #643AFF",
":+	c #4829FB",
"<+	c #5C36FB",
"[+	c #6A19FF",
"}+	c #44E71A",
"|+	c #91FF4E",
"1+	c #2AED29",
"2+	c #6B22A7",
"3+	c #836538",
"4+	c #A34631",
"5+	c #983A41",
"6+	c #91662B",
"7+	c #AF4C12",
"8+	c #935632",
"9+	c #5536A7",
"0+	c #9B5727",
"a+	c #8A5738",
"b+	c #89513E",
"c+	c #4C2EF5",
"d+	c #AC3D2E",
"e+	c #A7462C",
"f+	c #9D5D19",
"g+	c #5332B8",
"h+	c #5B36A4",
"i+	c #A2591A",
"j+	c #855045",
"k+	c #A13141",
"l+	c #9F571F",
"m+	c #964D36",
"n+	c #A05424",
"o+	c #A2561E",
"p+	c #6B7B3F",
"q+	c #7A6D3B",
"r+	c #69803C",
"s+	c #687942",
"                                                                                                                                ",
"                                                                                                                                ",
"    . . . . . . . . . . . . . . . . + @ @ @ # # # # @ $ . . . . . . . . + @ $ @ # # @ @ . . . . . . . . . . . . . . . . . .     ",
"    . . . . . . . . . . . . . . . . % & @ @ # # # # @ $ . . . . . . . . % & @ $ @ # @ @ . . . . . . . . . . . . . . . . . .     ",
"    . . . . . . . . . . . . . . * = - ; + & & & & & > > $ , . . . . ' ) ! % & $ & > > > > ~ . . . . . . . . . . . . . . . .     ",
"    . . . . . . . . . . . . . . - = = { ] ^ / ^ ^ ^ ^ / ~ % . . . . ' = = ( % ~ / ^ ^ ^ ^ ] . . . . . . . . . . . . . . . .     ",
"    . . . . . . . . . . . . - - - = _ : < [ } | | | [ 1 1 2 3 3 4 - ' ) = = { ' < [ : [ 1 < < : . . . . . . . . . . . . . .     ",
"    . . . . . . . . . . . . - - - : 5 : ( 6 6 6 6 7 7 8 : 5 9 0 a b - - ) : 5 c ( 6 7 7 7 d : 5 . . . . . . . . . . . . . .     ",
"    . . . . . . . . . . - - - - { 5 e ( f g h g i j j k l m 5 n o o 4 - { 5 e b f h i j j p 8 | . . . . . . . . . . . . . .     ",
"    . . . . . . . . . . - - - { : : ( f i j j j i q q r f s 1 _ 3 t u { : : ( f j j i q q r f 8 . . . . . . . . . . . . . .     ",
"    . . . . . . . . . . - - - : : l v i j j j i w x y z r p d A B 3 2 : | l v j j i C x y D r p . . . . . . . . . . . . . .     ",
"    . . . . . . . . . . - - - : | 6 h j j j E w F G G H q j 7 : 9 0 2 5 | d h j i C F G I x q j . . . . . . . . . . . . . .     ",
"    . . . . . . . . . . - - ) : | 6 h j j E w F J I G H q i 7 [ 5 2 0 B 5 7 h i C x K I G x q j 7 : . . . . . . . . . . . .     ",
"    . . . . . . . . . . - - ) : : ( f i j q D K J L K H M p d [ [ 2 3 B B 6 k M H K L L K x M p d < . . . . . . . . . . . .     ",
"    . . . . . . . . . . - - - ) N : ( v j q H L L K O P 6 s ; Q { 2 o 3 3 ( 8 R S K K K O P T 8 l N N N . . . . . . . . . .     ",
"    . . . . . . . . . . ' - - - { 5 | 8 v M U V V S W X 2 [ 1 - 4 a o o o 2 : 9 Y V Z S W X 2 [ [ N `  .. . . . . . . . . .     ",
"    . . . . . . . . . . - - - - - : : N l 8 u 9 A u u 4 : [ { 4 o o u 4 2 { : : A n 0 a a ( < : : ` `  .. . . . . . . . . .     ",
"    . . . . . . . . . . 2 * - ' - - ) : ......+.+.+.@.#.N { - 2 o o 4 - - - { Q Q Q Q Q ' Q Q `  .` $., . . . . . . . . . .     ",
"    . . . . . . . . . . o u b - - - N %.&.&.@.+.+.#.#.#.` N N = 4 4 = Q Q ) ) Q Q *.*.=.Q #.`  . .( -.;.. . . . . . . . . .     ",
"    . . . . . . . . . . >.o u * - `  .` $., , , , , , ( ` ,.%. .` ` ` ` `  .` ` ` @.@.@.@.,.,.,.'.).!.~.. . . . . . . . . .     ",
"    . . . . . . . . . . t t o u = @.@.$.-.{.{.].].{.].-.( ,.,. .@.@. . . . . . . . . . . .,.,.'.).!.~.^././.. . . . . . . .     ",
"    . . . . . . . . . . n o t 0 N #.! -.(.~.^._.~.(.:.;.).$.( $.$.$.$.$.$.$.$.$.$.$.$.$.$.$.l ).{.~.<.[.}.|.. . . . . . . .     ",
"    . . . . . . . . . . n 1.3 2.` ] 3.4.^./.[.[.5.^._.~.;.6.6.6.7.6.6.6.7.7.7.7.7.7.7.7.7.6.6.{.~.8.9.0.}.|.. . . . . . . .     ",
"    . . . . . . . . . . a.X n c ` b.|././.8.0.c.0.d.d.5.~.:.:.:.:.:.:.:.:.:.:.:.:.:.:.:.:.(.~.|.[.0.c.0.}.|.. . . . . . . .     ",
"    . . . . . . . . . . e.f.3 c : b.|./././.}.d.g.g.g.0.|.~.~._._._._._._._._._._._._.~.~.^.8.h.c.c.i.}.. . . . . . . . . .     ",
"    . . . . . . . . . . j.k.f.l.A m.3.|./.n.n.5.d.g.g.0.i.i.i.i.i.i.i.i.i.i.i.i.i.i.i.i.i.d.9.o.o.d.5.4.. . . . . . . . . .     ",
"    . . . . . . . . p.q.r.s.k.f.l.A m.t.|.n.n.^.5.5.}.i.0.c.c.c.c.c.c.c.c.c.c.c.c.c.c.c.c.h.d.5.5.5.4.n.. . . . . . . . . .     ",
"    . . . . . . . . u.u.v.w.x.y.f.l.c ] t.z.z.|.^.n.n./.A.9.9.9.9.9.9.9.9.9.9.9.9.9.9.o.o.d.B.3.3.z.C.C.. . . . . . . . . .     ",
"    . . . . . . D.D.D.D.u.v.w.s.y.E.F.A m.m.1.t.|.n.n././.<.<.<.G.G.G.G.G.G.G.G.G.<.<.G.G.}.t.a u b.. . . . . . . . . . . .     ",
"    . . . . . . u.u.D.H.H.I.J.K.s.L.f.M.M.N.c ] O.z.z.z.P.P.Q.Q.Q.Q.Q.Q.Q.Q.Q.Q.Q.Q.Q.|.z.O.] c N.a.. . . . . . . . . . . .     ",
"    . . . . . . u.u.u.H.H.I.R.k.y.y.S.S.T.E.N.U.] b.b.V.W.W.W.W.X.X.X.X.X.X.X.X.X.W.W.W.b.] U. .E.T.. . . . . . . . . . . .     ",
"    . . . . . . u.u.u.u.D.u.Y.e.k.Z.`.j.j. +.+++M.M.c ....&.@+@+@+@+@+@+@+@+@+@+@+&...c l.M.M..+#+j.. . . . . . . . . . . .     ",
"    . . . . u.u.u.u.u.D.D.D.u.Y.e.Z.y.s.x.$+%+T.T.E.2.&+&+U.U.U.U.U.U.U.U.U.U.U.U.&+&+2.E.T.L.L.e.s.s.K.. . . . . . . . . .     ",
"    . . . . u.u.u.u.u.u.D.H.H.u.Y.R.R.R.e.y.x.j.j.%+*+u u =+++++++++++++++++++++=+u u *+L.j.j.x.y.k.k.k.. . . . . . . . . .     ",
"    . . . . u.u.u.u.u.u.D.D.D.u.u.I.I.Y.e.k.`.x.-+$+#+;+;+#+#+%+%+%+%+%+%+%+%+#+#+;+;+#+$+-+x.`.y.S.S.S.. . . . . . . . . .     ",
"    . . . . u.u.u.u.u.u.u.u.u.u.H.H.H.I.e.Z.Z.k.e.$+$+x.-+-+x.x.x.x.x.x.x.x.x.x.-+-+x.$+$+y.k.S.R.R.R.R.. . . . . . . . . .     ",
"    . . . . u.u.u.u.u.D.u.u.u.D.H.H.H.I.e.Z.Z.S.S.y.`.`.`.`.`.`.`.`.`.`.`.`.`.`.`.`.`.`.k.Z.>+e.Y.I.I.v.. . . . . . . . . .     ",
"    . . . . u.u.u.D.D.D.u.u.u.D.H.H.H.I.,+R.R.J.S.Z.Z.Z.k.k.S.S.S.S.S.S.S.S.S.S.S.Z.k.Z.Z.>+e.Y.u.H.H.'+. . . . . . . . . .     ",
"    . . . . u.D.D.u.u.u.u.'+'+D.D.D.D.u.u.u.I.Y.e.>+>+S.S.S.S.S.S.S.S.S.S.S.S.S.S.S.S.>+>+e.Y.u.H.H.H.'+. . . . . . . . . .     ",
"    . . . . D.D.D.u.p.p.p.p.'+u.I.I.I.H.H.H.H.I.Y.R.R.R.R.R.R.R.R.R.R.R.R.R.R.R.R.R.R.R.R.Y.I.H.H.'+'+)+. . . . . . . . . .     ",
"    . . . . u.u.u.p.p.!+!+~+'+v.R.R.I.H.H.H.H.D.I.I.I.I.I.I.I.I.I.I.I.I.I.I.I.I.I.I.I.I.I.u.u.D.H.p.p.{+. . . . . . . . . .     ",
"    . . . . p.!+!+p.{+]+]+{+)+,+k.e.I.H.H.u.u.D.H.H.H.H.H.H.H.H.H.H.H.H.H.H.H.H.H.H.H.H.H.H.D.D.u.!+!+{+. . . . . . . . . .     ",
"    . . . . !+!+!+I.f.o 0 f.L.s.y.J.I.H.H.u.u.D.D.H.H.H.H.H.H.H.H.H.H.H.H.H.H.H.H.H.H.H.H.D.D.D.u.p.!+{+*+9 . . . . . . . .     ",
"    . . . . I.Y.]+^+0 } } l.Z.j.s.R.)+H.H.u.u.u.u.u.u.u.u.u.u.u.u.u.u.u.u.u.u.u.u.u.u.u.u.D.u.u.'+'+)+^+l.n . . . . . . . .     ",
"    . . . . a.a.*+3 < /+/+(+>+j.j.w._+H.H.H.D.u.u.u.u.u.u.u.u.u.u.u.u.u.u.u.u.u.u.u.u.u.D.D.u.'+p.u.^+>.n n . . . . . . . .     ",
"    . . . . 9 9 9 _ ; / / l .+T.-+:+<+_+H.H.H.H.D.u.u.u.u.u.u.u.u.u.u.u.u.u.u.u.u.u.u.u.D.D.'+p.!+Y.a.< ] ! . . . . . . . .     ",
"    . . . . : : < ; ~ $ > ~ ( M.T.-+r.<+u.D.H.D.D.D.D.D.u.u.u.u.u.u.u.u.u.u.u.u.D.u.u.D.D.H.'+!+[+S.3 }+~ + % ) . . . . . .     ",
"    . . . . ; ; ; + $ |+# / 1+u F 2+2+e.<+<+_+_+u.H.H.H.H.H.H.H.H.H.H.H.H.H.H.H.H.H.H.H.H.p.!+[+$+a.{ ^ ~ + + % . . . . . .     ",
"    . . . . & & & @ @ # s *.1+m.3+4+5+y e.:+:+<+u.H.H.H.H.H.H.H.H.H.H.H.H.H.H.H.H.H.H.H.'+!+[+$+a.{ *.1 ' ; + & . . . . . .     ",
"    . . . . @ # & + + % '.@.#.m.6+7+7+8+y 9+9+L.<+<+_+_+_+_+_+_+_+_+_+_+_+_+_+_+_+_+_+_+q.r.J.a.1 /+1 N _ ! + $ . . . . . .     ",
"    . . . . . . % ! ! - ) #.#.1.6+7+7+0+a+a+b+y L.:+:+c+c+c+c+c+c+c+c+c+c+c+c+c+c+c+c+r.r.J..+1 /+*.Q = _ ! . . . . . . . .     ",
"    . . . . . . ! _ _ = ) =.=.1.6+d+e+0+f+f+f+8+y 9+g+h+h+h+h+h+h+h+h+h+h+h+h+h+h+h+h+2+2+y m./+1+Q * = = ! . . . . . . . .     ",
"    . . . . . . . . . . . . . . . . d+4+0+i+i+0+b+j+j+j+b+b+b+b+b+b+b+b+b+b+b+b+b+b+b+5+k+3+. . . . . . . . . . . . . . . .     ",
"    . . . . . . . . . . . . . . . . d+d+e+4+0+0+0+f+f+f+f+f+f+f+f+f+f+f+f+f+f+f+f+i+7+7+l+. . . . . . . . . . . . . . . . .     ",
"    . . . . . . . . . . . . . . . . 8+4+4+m+m+0+n+o+o+o+o+l+0+0+0+0+o+o+o+o+o+o+o+7+7+0+. . . . . . . . . . . . . . . . . .     ",
"    . . . . . . . . . . . . . . . . p+q+3+3+m+e+e+e+e+e+4+4+0+8+8+8+4+e+4+e+e+e+e+e+8+r+. . . . . . . . . . . . . . . . . .     ",
"    . . . . . . . . . . . . . . (+(+t t >.s+a+e+d+4+4+4+. . . . . . . . 4+4+4+d+d+8+s+o F.. . . . . . . . . . . . . . . . .     ",
"    . . . . . . . . . . . . . . t 3 (+2.2.>.p+3+3+3+q+q+. . . . . . . . q+q+3+a+a+s+>.F.F.>.. . . . . . . . . . . . . . . .     ",
"    . . . . . . . . . . . . . . o >.3 F.F.(+>.X X X >.t . . . . . . . . t >.X X X >.(+(+3 >.>.o . . . . . . . . . . . . . .     ",
"    . . . . . . . . . . . . . * u o 0 u u u 0 F.F.F.2.2.. . . . . . . . 2.F.F.2.2.u u 0 0 o o u * . . . . . . . . . . . . .     ",
"    . . . . . . . . . . . . ' - * b * * - 4 0 (+(+(+. . . . . . . . . . . . (+u b ) - * b b * * - - . . . . . . . . . . . .     ",
"    . . . . . . . . . . . . - - - - ' Q Q * 0 t t o . . . . . . . . . . . . t 0 - Q Q ' ' - - - - - . . . . . . . . . . . .     ",
"                                                                                                                                ",
"                                                                                                                                "};
