/* XPM */
static char * frog_left_xpm[] = {
"64 64 242 2",
"  	c #221F1F",
". 	c #3A3838",
"+ 	c #83FC4A",
"@ 	c #7DF849",
"# 	c #83FE48",
"$ 	c #69EA45",
"% 	c #77F645",
"& 	c #57DA44",
"* 	c #65F338",
"= 	c #78FA3F",
"- 	c #44CD3D",
"; 	c #35CA3B",
"> 	c #3AD23A",
", 	c #73D049",
"' 	c #46D739",
") 	c #3BCB3D",
"! 	c #33C43B",
"~ 	c #3CC43E",
"{ 	c #4BD22C",
"] 	c #4BE426",
"^ 	c #56F02E",
"/ 	c #49CB46",
"( 	c #34C934",
"_ 	c #27C728",
": 	c #34CA2B",
"< 	c #35D62B",
"[ 	c #28D327",
"} 	c #3DBC41",
"| 	c #3C9B49",
"1 	c #39BA3D",
"2 	c #1BC41B",
"3 	c #29CE12",
"4 	c #29BA36",
"5 	c #16BB1A",
"6 	c #6DEA6C",
"7 	c #8CEF8F",
"8 	c #6CD473",
"9 	c #17B834",
"0 	c #3BC643",
"a 	c #42B546",
"b 	c #39A949",
"c 	c #26AA28",
"d 	c #5ADD63",
"e 	c #C7FEC6",
"f 	c #FEFFFE",
"g 	c #FAF9FB",
"h 	c #E7FAE8",
"i 	c #A7E7AA",
"j 	c #0BBA13",
"k 	c #41A648",
"l 	c #3AA937",
"m 	c #09C310",
"n 	c #4DD74E",
"o 	c #BBFAC1",
"p 	c #DDF6E3",
"q 	c #DCD6E2",
"r 	c #F4D2F7",
"s 	c #3AB446",
"t 	c #429D4A",
"u 	c #55E74D",
"v 	c #9168A5",
"w 	c #6C477B",
"x 	c #76528D",
"y 	c #CFB6D9",
"z 	c #B8F4B6",
"A 	c #2A9D29",
"B 	c #28B22E",
"C 	c #AD84BC",
"D 	c #B8ADC5",
"E 	c #000018",
"F 	c #070225",
"G 	c #5C5377",
"H 	c #87579C",
"I 	c #F2EFF5",
"J 	c #310A52",
"K 	c #170A38",
"L 	c #C9D0CF",
"M 	c #1A013C",
"N 	c #2BC937",
"O 	c #73BA7A",
"P 	c #626685",
"Q 	c #5C3077",
"R 	c #46505B",
"S 	c #5FAF68",
"T 	c #36D537",
"U 	c #1BCC3B",
"V 	c #23CC3B",
"W 	c #4E914C",
"X 	c #5B6E6D",
"Y 	c #365159",
"Z 	c #253C38",
"` 	c #296F38",
" .	c #6D7A79",
"..	c #54CA43",
"+.	c #25D838",
"@.	c #1BD438",
"#.	c #16E435",
"$.	c #10D025",
"%.	c #E4C24D",
"&.	c #A7C64A",
"*.	c #27E239",
"=.	c #35E630",
"-.	c #18C928",
";.	c #17CA35",
">.	c #FDB644",
",.	c #F1C351",
"'.	c #99CD4F",
").	c #38D044",
"!.	c #0ACC3A",
"~.	c #46964B",
"{.	c #FAA92B",
"].	c #FBAC37",
"^.	c #DAC553",
"/.	c #E6C553",
"(.	c #E7AC34",
"_.	c #DBA329",
":.	c #DA9923",
"<.	c #F29F26",
"[.	c #FFC253",
"}.	c #FABD4E",
"|.	c #FAB23D",
"1.	c #C78F18",
"2.	c #D48C12",
"3.	c #E79D26",
"4.	c #CDC853",
"5.	c #D3C652",
"6.	c #E8A529",
"7.	c #EEB431",
"8.	c #A9B237",
"9.	c #30B34F",
"0.	c #4CAC37",
"a.	c #C48A12",
"b.	c #D8951D",
"c.	c #70B237",
"d.	c #457978",
"e.	c #D69B23",
"f.	c #CD8B13",
"g.	c #B68510",
"h.	c #4A6B8B",
"i.	c #5634CD",
"j.	c #D58A13",
"k.	c #FEB633",
"l.	c #4BB433",
"m.	c #329353",
"n.	c #512DC2",
"o.	c #5610ED",
"p.	c #93B330",
"q.	c #551AD9",
"r.	c #5825F8",
"s.	c #682EFF",
"t.	c #7333FF",
"u.	c #E9C71A",
"v.	c #D3AE32",
"w.	c #CC9B2A",
"x.	c #EE9718",
"y.	c #5429CB",
"z.	c #591DDE",
"A.	c #5A28E4",
"B.	c #6539F4",
"C.	c #6D3FFF",
"D.	c #F1A022",
"E.	c #35A651",
"F.	c #336A93",
"G.	c #6E40FF",
"H.	c #19A857",
"I.	c #A1C626",
"J.	c #D8AA41",
"K.	c #CEA541",
"L.	c #328F68",
"M.	c #5639C7",
"N.	c #4F1ED3",
"O.	c #5936D5",
"P.	c #6A3DF4",
"Q.	c #7141FF",
"R.	c #4838C5",
"S.	c #21E323",
"T.	c #64A34B",
"U.	c #649E51",
"V.	c #5EA342",
"W.	c #5232C2",
"X.	c #5B36D9",
"Y.	c #5446BC",
"Z.	c #438484",
"`.	c #17C432",
" +	c #41A464",
".+	c #4F44C1",
"++	c #5523D3",
"@+	c #4E2EBA",
"#+	c #643BE8",
"$+	c #1EF115",
"%+	c #5541C1",
"&+	c #5829D6",
"*+	c #488872",
"=+	c #40A860",
"-+	c #5818E4",
";+	c #514DB7",
">+	c #4E32BB",
",+	c #723CFF",
"'+	c #5F38E2",
")+	c #6D43F4",
"!+	c #6A47EA",
"~+	c #7836FF",
"{+	c #752AFF",
"]+	c #6551D3",
"^+	c #5665AD",
"/+	c #643AFF",
"(+	c #3AA34E",
"_+	c #2DEE14",
":+	c #5C36FB",
"<+	c #4829FB",
"[+	c #44E71A",
"}+	c #6A19FF",
"|+	c #6B22A7",
"1+	c #2AED29",
"2+	c #91FF4E",
"3+	c #983A41",
"4+	c #A34631",
"5+	c #836538",
"6+	c #5536A7",
"7+	c #935632",
"8+	c #AF4C12",
"9+	c #91662B",
"0+	c #4C2EF5",
"a+	c #89513E",
"b+	c #8A5738",
"c+	c #9B5727",
"d+	c #5B36A4",
"e+	c #5332B8",
"f+	c #9D5D19",
"g+	c #A7462C",
"h+	c #AC3D2E",
"i+	c #A13141",
"j+	c #855045",
"k+	c #A2591A",
"l+	c #9F571F",
"m+	c #A2561E",
"n+	c #A05424",
"o+	c #964D36",
"p+	c #69803C",
"q+	c #7A6D3B",
"r+	c #6B7B3F",
"s+	c #687942",
"                                                                                                                                ",
"                                                                                                                                ",
"    . . . . . . . . . . . . . . . . . . + + @ @ + # + $ . . . . . . . . # + @ @ @ @ + + + $ . . . . . . . . . . . . . . . .     ",
"    . . . . . . . . . . . . . . . . . . + + @ + # + % & . . . . . . . . # + @ @ @ @ + + % & . . . . . . . . . . . . . . . .     ",
"    . . . . . . . . . . . . . . . . * = = = = % # % & - ; > . . . . , # = = % % % % % $ ' ) ! ~ . . . . . . . . . . . . . .     ",
"    . . . . . . . . . . . . . . . . { ] ] ] ] ^ * & / ! ! > . . . . & * ^ ] ] ] ] ^ ] { ( ! ! ) . . . . . . . . . . . . . .     ",
"    . . . . . . . . . . . . . . _ : : < [ _ [ : > ( ! ! ; > ) } | | 1 < < [ 2 2 2 3 [ : _ 4 ! ) ) ) . . . . . . . . . . . .     ",
"    . . . . . . . . . . . . . . 5 _ 6 7 7 7 8 / 9 5 _ ; ) ) 0 a b c 5 _ d 7 7 8 8 8 8 / _ 5 _ ) ) ) . . . . . . . . . . . .     ",
"    . . . . . . . . . . . . . . 2 d e f f g h i 0 j 5 ( ) } k k l 5 m n o f f g p h p i / j 5 ( ) ) ) ) . . . . . . . . . .     ",
"    . . . . . . . . . . . . . . d i q r r g f f i / _ _ ( s t | 4 < u i q r r g f f f g i / _ _ ( ) ) ) . . . . . . . . . .     ",
"    . . . . . . . . . . . . . . e q v w x y g f f z n 2 _ 1 | A B 6 e q C w x D g f f f g z n _ _ ) ) ) . . . . . . . . . .     ",
"    . . . . . . . . . . . . . . f r x E F G y g f h 6 2 5 1 b c _ 7 f r H F F G D I f f f h 8 2 _ ) ) ) . . . . . . . . . .     ",
"    . . . . . . . . . . . . _ 7 f r x F E J x y g h 7 5 A b 1 5 [ 7 g r H F E K G D I f f h 8 2 _ ; ) ) . . . . . . . . . .     ",
"    . . . . . . . . . . . . : 6 e L x J M M J H L o 8 A A | 1 [ [ 6 e L H J M K J v r f g i / _ _ ; ) ) . . . . . . . . . .     ",
"    . . . . . . . . . . N N N n d O P Q J J J R S d / | | k 1 ( T ' u 8 P Q J M M H r f z / _ N ; ) ) ) . . . . . . . . . .     ",
"    . . . . . . . . . . U V N [ [ 1 W X R Y Z ` c _ 1 k k k a } ) < [ 1 W X R Z Z  .L z d 2 5 ( ) ) ) > . . . . . . . . . .     ",
"    . . . . . . . . . . U V V _ _ : / a a b l B _ _ ( 1 } s k k } ( [ _ } s s B c s d n N _ _ ) ) ) ) ) . . . . . . . . . .     ",
"    . . . . . . . . . . , ..V U V T T > T T T T T ( ) ) ) } k k 1 ) ( N +.@.#.#.#.$.$.$._ ; ) ) > ) ~ 1 . . . . . . . . . .     ",
"    . . . . . . . . . . %.&./ U U V +.T *.=.=.T T ; ; T T ! } } ! N N V +.+.+.#.#.@.-.-.;.N ) ) ) 0 s k . . . . . . . . . .     ",
"    . . . . . . . . . . >.,.'.).!.!.!.@.@.@.@.V V V U V V V V V U ;.!.V / , , , , , , ..V U V ) ~ s k ~.. . . . . . . . . .     ",
"    . . . . . . . . {.{.].>.,.'.).!.!.U U U U U U U U U U U @.@.U !.!./ &.^./.^.^././.&...@.@.! s k t t . . . . . . . . . .     ",
"    . . . . . . . . (._.:.<.>./.'.n ............................../ ..'.%.[.}.>.|.].>.}.&.- +.N b t k l . . . . . . . . . .     ",
"    . . . . . . . . (._.1.2.3.>./.4.4.5.5.5.5.5.5.5.5.5.4.4.4.5.4.4.4.%.>.|.].6.:.:.{.].7.8.{ V 9.| 0.l . . . . . . . . . .     ",
"    . . . . . . . . (._.1.a.1.:.(.>.}.[.[.[.[.[.[.[.[.[.[.[.[.[.[.[.[.>.6.b.b.1.a.1.3.{.{.(.c.V 9 l W d.. . . . . . . . . .     ",
"    . . . . . . . . . . _.e.a.a.f.3.].>.>.|.|.|.|.|.|.|.|.|.|.|.|.>.>.(.1.g.g.g.b._.{.{.{.(.c._ 9 | h.i.. . . . . . . . . .     ",
"    . . . . . . . . . . 7.6.b.j.j.2.b.e.e.e.e.e.e.e.e.e.e.e.e.e.e.e.e.e.1.g.g.b.6.k.k.{.(.8.l.B m.h.n.o.. . . . . . . . . .     ",
"    . . . . . . . . . . k.7.6.6.6.b.f.a.a.a.a.a.a.a.a.a.a.a.a.a.a.a.a.1.e._.6.6.].k.k.(.p.l.B m.h.n.q.r.s.t.. . . . . . . .     ",
"    . . . . . . . . . . u.u.v.8.8.w.b.j.j.2.2.2.2.2.2.2.2.2.2.2.2.2.2.x.{.k.k.].(.v.v.p.{ 9 m.h.y.z.A.B.C.C.. . . . . . . .     ",
"    . . . . . . . . . . . . c.s a p._.D.D.<.<.D.D.D.D.D.D.D.D.D.<.<.<.{.{.k.k.(.p.0.l.l.B E.F.y.q.A.B.C.G.G.G.G.. . . . . .     ",
"    . . . . . . . . . . . . d.H.9 { I.v.(.J.J.J.J.J.J.J.J.J.J.J.J.J.K.K.v.v.v.I.{ 9 H.L.L.h.M.q.N.O.P.Q.Q.G.C.C.. . . . . .     ",
"    . . . . . . . . . . . . R.F.U S.{ c.T.T.T.U.U.U.U.U.U.U.U.U.T.T.T.T.V.c.c.{ S.H.F.R.W.W.y.y.n.X.P.Q.Q.C.C.C.. . . . . .     ",
"    . . . . . . . . . . . . o.Y.Z.L.L.m.9 $.-.`.`.`.`.`.`.`.`.`.`.`.-.$.$.9 L.L. +Z..+o.o.++@+n.i.#+C.G.C.C.C.C.. . . . . .     ",
"    . . . . . . . . . . N.q.q.i.M.M.R.F.9.$+$+S.S.S.S.S.S.S.S.S.S.S.S.$+$+9.F.R.R.%+&+z.q.y.@+i.#+C.G.G.G.C.C.C.C.C.. . . .     ",
"    . . . . . . . . . . n.n.n.y.z.o.o.M.*+s s =+ + + + + + + + + + +=+s s *+%+o.o.z.y.i.X.X.X.#+C.Q.Q.G.C.C.C.C.C.C.. . . .     ",
"    . . . . . . . . . . W.W.W.y.++z.-+&+Y.;+;+Y.Y.%+%+%+%+%+%+%+%+Y.Y.;+;+Y.&+-+z.++n.i.#+P.P.C.C.G.G.G.C.C.C.C.C.C.. . . .     ",
"    . . . . . . . . . . X.X.X.X.W.n.y.&+&+z.-+-+z.z.z.z.z.z.z.z.z.z.-+-+z.&+&+i.n.@+@+i.P.Q.Q.Q.C.C.C.C.C.C.C.C.C.C.. . . .     ",
"    . . . . . . . . . . B.P.P.#+i.>+@+n.++++++++++++++++++++++++++++++++++++y.W.W.@+@+i.P.Q.Q.Q.G.C.C.C.G.C.C.C.C.C.. . . .     ",
"    . . . . . . . . . . ,+Q.Q.C.#+i.>+@+@+n.@+W.W.W.W.W.W.W.W.W.W.W.n.n.@+@+@+W.O.X.X.'+P.Q.Q.Q.G.C.C.C.G.G.G.C.C.C.. . . .     ",
"    . . . . . . . . . . ,+Q.Q.Q.C.#+i.>+>+W.W.W.W.W.W.W.W.W.W.W.W.W.W.W.W.>+>+i.#+P.C.C.C.G.G.G.G.,+,+C.C.C.C.G.G.C.. . . .     ",
"    . . . . . . . . . . )+,+,+Q.Q.P.#+X.X.X.X.X.X.X.X.X.X.X.X.X.X.X.X.X.X.X.X.#+P.Q.Q.Q.Q.P.P.P.C.,+t.t.t.t.C.G.G.G.. . . .     ",
"    . . . . . . . . . . !+t.t.Q.G.C.C.P.P.P.P.P.P.P.P.P.P.P.P.P.P.P.P.P.P.P.P.P.G.Q.Q.Q.Q.P.X.X.B.,+~+{+{+t.t.C.C.C.. . . .     ",
"    . . . . . . . . . . !+{+{+C.G.G.Q.Q.Q.Q.Q.Q.Q.Q.Q.Q.Q.Q.Q.Q.Q.Q.Q.Q.Q.Q.Q.Q.G.C.C.Q.Q.P.i.n.'+)+!+]+]+!+t.{+{+t.. . . .     ",
"    . . . . . . . . c *+!+{+t.C.G.G.G.Q.Q.Q.Q.Q.Q.Q.Q.Q.Q.Q.Q.Q.Q.Q.Q.Q.Q.Q.Q.G.G.C.C.Q.Q.P.O.y.q.M.h.b k h.P.{+{+{+. . . .     ",
"    . . . . . . . . l m.^+)+,+,+C.C.G.C.C.C.C.C.C.C.C.C.C.C.C.C.C.C.C.C.C.C.C.C.C.C.C.Q.Q.)+X.q.o.@+m.3 3 b ^+]+#+P.. . . .     ",
"    . . . . . . . . l l ~.^+C.t.,+C.G.G.C.C.C.C.C.C.C.C.C.C.C.C.C.C.C.C.C.C.C.C.C.G.Q.Q.Q./+A.o.o.>+(+_+_+: | *+d.d.. . . .     ",
"    . . . . . . . . - { : d.#+{+t.,+G.G.C.C.C.C.C.C.C.C.C.C.C.C.C.C.C.C.C.C.C.G.Q.Q.Q.Q./+:+<+-+R.Z.n ^ ^ ' 4 c c c . . . .     ",
"    . . . . . . ; & $ * [+| W.}+{+,+Q.G.G.C.C.G.C.C.C.C.C.C.C.C.C.C.C.C.G.G.G.G.G.Q.G.C.:+r.-+R.L./ * = # * ' : _ _ . . . .     ",
"    . . . . . . & $ $ * ] ( d.&+}+{+t.Q.Q.Q.Q.Q.Q.Q.Q.Q.Q.Q.Q.Q.Q.Q.Q.Q.Q.Q.Q.C./+/+:+:+i.|+|+G s 1+^ @ 2+# $ ' ' ' . . . .     ",
"    . . . . . . % $ ' > < =.( d.&+}+{+,+Q.Q.Q.Q.Q.Q.Q.Q.Q.Q.Q.Q.Q.Q.Q.Q.Q.Q.Q.C.:+<+<+i.w 3+4+5+l.1+=.u @ + + % % % . . . .     ",
"    . . . . . . # $ - 4 N < _+< d.O.r.s./+/+/+/+/+/+/+/+/+/+/+/+/+/+/+/+/+/+:+:+M.6+6+w 7+8+8+9+l.+.@.).& $ $ % @ + . . . .     ",
"    . . . . . . . . - 4 ! T =._+< Z.O.r.r.0+0+0+0+0+0+0+0+0+0+0+0+0+0+0+0+<+<+M.w a+b+b+c+8+8+9+0.+.+.; ) - - & . . . . . .     ",
"    . . . . . . . . - ! ! ~ T 1+_+l.w |+|+d+d+d+d+d+d+d+d+d+d+d+d+d+d+d+d+e+6+w 7+f+f+f+c+g+h+9+0.*.*.; ! 4 4 - . . . . . .     ",
"    . . . . . . . . . . . . . . . . 5+i+3+a+a+a+a+a+a+a+a+a+a+a+a+a+a+a+j+j+j+a+c+k+k+c+4+h+. . . . . . . . . . . . . . . .     ",
"    . . . . . . . . . . . . . . . . . l+8+8+k+f+f+f+f+f+f+f+f+f+f+f+f+f+f+f+f+c+c+c+4+g+h+h+. . . . . . . . . . . . . . . .     ",
"    . . . . . . . . . . . . . . . . . . c+8+8+m+m+m+m+m+m+m+c+c+c+c+l+m+m+m+m+n+c+o+o+4+4+7+. . . . . . . . . . . . . . . .     ",
"    . . . . . . . . . . . . . . . . . . p+7+g+g+g+g+g+4+g+4+7+7+7+c+4+4+g+g+g+g+g+o+5+5+q+r+. . . . . . . . . . . . . . . .     ",
"    . . . . . . . . . . . . . . . . . E.k s+7+h+h+4+4+4+. . . . . . . . 4+4+4+h+g+b+s+~.t t (+(+. . . . . . . . . . . . . .     ",
"    . . . . . . . . . . . . . . . . ~.E.E.~.s+b+b+5+q+q+. . . . . . . . q+q+5+5+5+r+~.9.9.(+| t . . . . . . . . . . . . . .     ",
"    . . . . . . . . . . . . . . k ~.~.| (+(+~.W W W ~.t . . . . . . . . t ~.W W W ~.(+E.E.| ~.k . . . . . . . . . . . . . .     ",
"    . . . . . . . . . . . . . ~ s k k b b s s 9.9.E.E.9.. . . . . . . . 9.9.E.E.E.b s s s b k s ~ . . . . . . . . . . . . .     ",
"    . . . . . . . . . . . . ) ) ~ ~ 0 0 ~ ) ; 0 s (+. . . . . . . . . . . . (+(+(+b } ) ~ ~ 0 ~ ) > . . . . . . . . . . . .     ",
"    . . . . . . . . . . . . ) ) ) ) ) > > T T ) b t . . . . . . . . . . . . k t t b ~ T T > ) ) ) ) . . . . . . . . . . . .     ",
"                                                                                                                                ",
"                                                                                                                                "};
